<!-- icon666.com - MILLIONS vector ICONS FREE --><svg version="1.1" id="Layer_1" xmlns="http://www.w3.org/2000/svg" xmlns:xlink="http://www.w3.org/1999/xlink" x="0px" y="0px" viewBox="0 0 508 508" style="enable-background:new 0 0 508 508;" xml:space="preserve"><circle style="fill:#ED6957;" cx="254" cy="254" r="254"></circle><path style="fill:#527F99;" d="M368.2,163L257.6,89.4c-1.8-1.2-5.2-1.2-7,0L139.8,163l-4.4-6.6L246,82.8c4.6-3,11.4-3,16,0 l110.6,73.6L368.2,163z"></path><path style="fill:#B1B2B5;" d="M403.8,395.6H104.2c-4,0-7.4-3.4-7.4-7.4V160.4c0-4,3.4-7.4,7.4-7.4h299.6c4,0,7.4,3.4,7.4,7.4v227.8 C411.2,392.2,407.8,395.6,403.8,395.6z"></path><rect x="116.8" y="172.8" style="fill:#8E919B;" width="274.4" height="202.8"></rect><path style="fill:#F2CD56;" d="M122.2,178.2v122.2c9-14.4,21-27,32.8-39.4c11-11.6,22.2-23.2,34.8-33.2c5.8-4.6,13.4-9,20-5.6 c2.6,1.2,4.6,3.6,6.4,5.8c18.8,22.4,39.4,43.2,61.6,62.2c1.8,1.6,3.8,3.2,6.2,3.6c4.4,0.8,8.4-2.2,11.8-5.2 c12.8-11,25.6-22.2,38.4-33.2c3-2.6,6.2-5.2,10-6.4c7.2-2,14.4,2.2,20.6,6.6c7.4,5.2,14.4,11,21,17v-94.4H122.2z"></path><path style="fill:#B57C6B;" d="M164.2,326.4c9.2-0.6,18.2,2.6,27.4,3c13.8,0.6,27-5.4,40.8-6.4c14.6-1.2,30,3,43.6-2.4 c11.4-4.4,20.4-14.8,32.6-15.2c14-0.6,25.2,12.8,39.2,14.2c5,0.4,10.4-0.6,15.2,0.6c2.8,0.6,5.4,2,8,3c3.8,1.4,7.8,2.2,11.8,3 c1,0.2,1.8,0.4,2.8,0.6V273c-6.6-6.2-13.6-11.8-21-17c-6-4.4-13.4-8.6-20.6-6.6c-3.8,1-7,3.8-10,6.4c-12.8,11-25.6,22.2-38.4,33.2 c-3.4,2.8-7.4,6-11.8,5.2c-2.4-0.4-4.4-2.2-6.2-3.6c-22.2-19-42.8-40-61.6-62.2c-1.8-2.2-3.8-4.6-6.4-5.8c-6.6-3.2-14.2,1.2-20,5.6 c-12.6,10-23.6,21.6-34.8,33.2c-11.8,12.4-23.8,25-32.8,39.4v37.4c5.2-0.6,10.4-1.6,15.6-3.2C146.6,331.6,155,327.2,164.2,326.4z"></path><path style="fill:#615144;" d="M166.8,359.6c5.2,1,10.2,3,15.6,2.8c9-0.2,16.8-6.2,25.6-6.8c8.4-0.6,16.2,3.4,24.4,4.6 c7.2,1.2,14.6,0,22-0.8c13.2-1.6,26.6-2.6,39.8-2.8c20.4-0.6,41,0.2,61.4,1.2c5,0.2,10,0.4,14.8,0.6c5,0.2,10.2,0.4,15.2,0.6v-32.2 c-1-0.2-1.8-0.4-2.8-0.6c-4-0.8-8-1.6-11.8-3c-2.6-1-5.2-2.4-8-3c-5-1.2-10.2,0-15.2-0.6c-14-1.4-25.2-14.6-39.2-14.2 c-12.2,0.4-21.2,10.8-32.6,15.2c-13.6,5.2-29,1.2-43.6,2.4c-13.8,1.2-27,7-40.8,6.4c-9.2-0.4-18.2-3.6-27.4-3s-17.6,5.2-26.4,8 c-5,1.6-10.2,2.6-15.6,3.2v24c3.4-0.4,6.8-1,10-1.4C143.8,358.8,155.4,357.2,166.8,359.6z"></path><path style="fill:#412511;" d="M370.6,358.2c-5-0.2-10-0.4-14.8-0.6c-20.4-0.8-41-1.8-61.4-1.2c-13.4,0.4-26.6,1.4-39.8,2.8 c-7.4,0.8-14.8,2-22,0.8c-8.2-1.2-16.2-5.2-24.4-4.6c-8.8,0.8-16.8,6.6-25.6,6.8c-5.2,0.2-10.4-1.8-15.6-2.8 c-11.4-2.4-23.2-0.8-34.6,0.8c-3.4,0.4-6.8,1-10,1.4v8.6H386v-11.6C380.8,358.6,375.8,358.4,370.6,358.2z"></path><circle style="fill:#FFFFFF;" cx="285.2" cy="221" r="20.4"></circle><circle style="fill:#0B2C48;" cx="254" cy="94" r="9.2"></circle></svg>